<svg xmlns="http://www.w3.org/2000/svg" width="512" height="512" viewBox="0 0 512 512" version="1.1">
	<path d="M 253.542 3.244 C 252.756 5.126, 251.582 8.878, 250.934 11.582 C 247.749 24.859, 238.647 53.549, 231.609 72.500 C 230.179 76.350, 229.007 79.657, 229.004 79.848 C 229.002 80.040, 231.813 79.901, 235.250 79.540 C 239.077 79.138, 240.991 79.235, 240.188 79.789 C 239.366 80.357, 244.583 80.914, 254.188 81.284 C 265.702 81.727, 271.874 82.483, 279.070 84.333 C 288.130 86.662, 300.223 91.936, 306.226 96.176 L 308.952 98.102 326.726 88.681 C 336.502 83.500, 347.875 77.589, 352 75.547 L 359.500 71.833 355 76.305 C 350.047 81.227, 339 95.285, 339 96.665 C 339 97.145, 336.637 100.083, 333.750 103.195 C 328.793 108.538, 327.747 109.131, 315 113.819 C 307.575 116.550, 300.375 119.094, 299 119.472 C 292.182 121.345, 292.330 121.415, 295.591 117.865 C 302.607 110.228, 304.134 106.191, 301.561 102.080 C 300.893 101.013, 301.078 100.816, 302.304 101.286 C 303.202 101.631, 304.152 101.564, 304.415 101.137 C 305.085 100.054, 293.815 100.300, 292.095 101.406 C 291.044 102.082, 290.904 101.956, 291.537 100.905 C 292.258 99.708, 292.133 99.704, 290.692 100.872 C 289.642 101.724, 289 101.831, 289 101.154 C 289 100.547, 288.261 100.346, 287.336 100.701 C 286.128 101.165, 285.896 100.977, 286.490 100.015 C 287.040 99.126, 286.923 98.929, 286.135 99.417 C 284.279 100.564, 270.039 95.559, 270.011 93.750 C 270.005 93.338, 269.127 93, 268.059 93 C 266.991 93, 265.800 92.485, 265.410 91.855 C 264.921 91.063, 265.530 90.868, 267.387 91.223 C 269.861 91.696, 269.951 91.603, 268.532 90.035 C 267.685 89.099, 266.431 88.305, 265.746 88.269 C 265.061 88.234, 261.922 87.874, 258.771 87.468 C 253.956 86.847, 252.941 86.990, 252.416 88.359 C 252.072 89.255, 251.388 89.740, 250.895 89.435 C 250.403 89.131, 250 89.531, 250 90.324 C 250 91.118, 248.988 92.070, 247.750 92.442 C 245.588 93.090, 245.577 93.147, 247.478 93.901 C 249.391 94.661, 249.382 94.725, 247.180 95.904 C 245.561 96.770, 245.082 97.682, 245.519 99.061 C 245.997 100.565, 245.657 101, 244.008 101 C 242.839 101, 242.149 101.432, 242.475 101.959 C 243.320 103.327, 240.805 106.997, 239.009 107.015 C 237.781 107.028, 237.753 107.191, 238.857 107.890 C 240.829 109.140, 238.768 110.159, 233.233 110.671 C 230.728 110.903, 227.444 111.972, 225.935 113.046 C 224.426 114.121, 222.698 115, 222.096 115 C 221.493 115, 221.053 115.338, 221.118 115.750 C 221.415 117.628, 220.862 117.996, 219.134 117.072 C 217.861 116.390, 216.304 116.436, 214.237 117.217 C 211.394 118.290, 210.983 118.124, 207.603 114.540 C 205.621 112.439, 204 110.033, 204 109.193 C 204 108.354, 203.742 107.925, 203.426 108.241 C 203.110 108.556, 203.662 111.095, 204.652 113.882 C 207.565 122.085, 206.345 122.222, 190.538 115.462 C 180.693 111.251, 176.648 109.952, 175.855 110.745 C 174.860 111.740, 177.030 118.116, 185.062 137.797 C 186.445 141.184, 186.270 144.287, 184.750 143.337 C 182.743 142.083, 181.001 142.084, 180.985 143.338 C 180.973 144.216, 180.789 144.217, 180.235 143.344 C 179.831 142.708, 179.500 146.870, 179.500 152.593 C 179.500 158.315, 179.634 162.998, 179.798 162.999 C 179.962 162.999, 180.732 161.537, 181.509 159.750 C 182.859 156.644, 182.923 156.614, 182.961 159.072 C 183.004 161.906, 180.237 170.949, 178.867 172.450 C 178.361 173.005, 177.974 171.964, 177.937 169.950 C 177.875 166.583, 177.847 166.560, 176.780 169 C 176.179 170.375, 175.752 171.821, 175.832 172.214 C 175.911 172.607, 175.309 172.672, 174.494 172.359 C 173.679 172.046, 173.260 171.388, 173.565 170.895 C 173.869 170.403, 173.690 170, 173.166 170 C 172.642 170, 171.931 170.736, 171.586 171.636 C 171.010 173.138, 170.802 173.131, 169.059 171.553 C 167.254 169.920, 167.103 169.938, 166.044 171.917 C 165.431 173.063, 164.383 173.993, 163.715 173.985 C 162.853 173.974, 162.887 173.724, 163.834 173.124 C 164.903 172.446, 164.846 172.155, 163.546 171.656 C 162.541 171.270, 161.684 171.659, 161.294 172.677 C 160.757 174.075, 160.544 174, 159.870 172.177 C 158.974 169.756, 156.381 170.163, 155.673 172.835 C 155.430 173.751, 155.160 172.700, 155.071 170.500 L 154.910 166.500 153.536 169.500 L 152.162 172.500 152.066 169.500 C 151.988 167.093, 151.759 166.797, 150.904 168 C 150.111 169.116, 149.974 168.348, 150.369 165 L 150.900 160.500 149.526 164 C 147.585 168.944, 147.675 165.430, 149.655 158.932 C 150.565 155.944, 151.268 152.703, 151.216 151.728 C 151.164 150.754, 151.539 150.215, 152.049 150.530 C 152.559 150.846, 152.720 150.433, 152.405 149.613 C 152.090 148.793, 152.354 147.307, 152.992 146.311 C 154.069 144.628, 154.110 144.641, 153.573 146.500 C 153.004 148.470, 153.017 148.471, 154.498 146.559 C 156.253 144.291, 156.373 143.348, 155.011 142.507 C 154.424 142.144, 154.290 142.593, 154.681 143.612 C 155.112 144.733, 154.955 145.090, 154.230 144.642 C 153.199 144.005, 151.232 145.828, 143.049 155 C 130.267 169.327, 116.090 197.241, 111.562 217 C 111.246 218.375, 109.970 220.642, 108.726 222.037 C 106.060 225.025, 93.867 229.434, 90.563 228.605 C 89.194 228.262, 81.357 230.215, 70.894 233.508 C 61.327 236.519, 50.350 239.692, 46.500 240.559 C 40.263 241.964, 24.274 246.594, 6.250 252.214 C 1.625 253.656, 0 254.630, 0 255.960 C 0 258.245, 0.308 258.362, 31.500 267.913 C 45.800 272.292, 69.137 279.650, 83.360 284.264 L 109.219 292.653 113.472 305.577 C 118.636 321.268, 123.978 332.128, 133.357 346 C 141.994 358.773, 158.785 375.877, 171.500 384.854 C 182.308 392.484, 199.137 400.789, 211.647 404.665 L 220.795 407.500 229.362 434.500 C 234.075 449.350, 241.359 472.300, 245.550 485.500 C 249.740 498.700, 253.834 510.175, 254.646 511 C 255.957 512.332, 256.288 512.276, 257.605 510.500 C 258.420 509.400, 260.695 503.325, 262.661 497 C 270.092 473.089, 290.992 407.680, 291.241 407.557 C 291.383 407.487, 295.550 406.148, 300.500 404.581 C 347.592 389.674, 385.370 350.568, 399.604 301.994 C 401.135 296.772, 402.456 292.381, 402.540 292.237 C 402.690 291.980, 442.778 279.526, 486 266.309 C 510.912 258.691, 513.006 257.792, 512.985 254.724 C 512.973 253.095, 512.739 252.863, 512.110 253.857 C 511.534 254.766, 511.032 254.860, 510.589 254.144 C 510.225 253.555, 508.481 252.651, 506.714 252.134 C 489.189 247.009, 402.873 220.227, 402.573 219.822 C 402.441 219.645, 400.866 214.775, 399.072 209 C 392.594 188.152, 384.730 173.274, 371.383 156.613 C 366.713 150.785, 359.204 142.780, 354.696 138.826 C 350.188 134.871, 346.375 131.341, 346.221 130.981 C 346.068 130.621, 353.380 115.028, 362.471 96.329 C 371.562 77.630, 379 61.551, 379 60.598 C 379 58.133, 377.542 58.740, 356.669 69.903 C 346.676 75.247, 332.024 82.903, 324.110 86.915 L 309.720 94.211 300.110 89.691 C 294.824 87.206, 289.150 84.768, 287.500 84.274 C 284.207 83.289, 286.146 88.553, 263.834 20.052 C 260.351 9.356, 256.931 0.429, 256.236 0.214 C 255.538 -0.001, 254.331 1.357, 253.542 3.244 M 122.268 55.132 C 121.149 56.251, 125.860 65.912, 149.221 110.391 C 159.449 129.865, 160.107 131.458, 158.922 133.891 C 158.223 135.326, 157.730 136.838, 157.825 137.250 C 157.921 137.662, 157.646 138, 157.214 138 C 156.782 138, 156.429 138.900, 156.429 140 C 156.429 142.720, 157.388 142.512, 159.035 139.435 C 160.388 136.906, 160.419 136.900, 161.199 139.009 C 161.645 140.216, 161.541 141.989, 160.960 143.074 C 160.393 144.134, 160.159 145, 160.439 145 C 160.719 145, 161.635 143.672, 162.474 142.050 C 165.391 136.410, 164.490 132.898, 155.856 116.226 C 151.377 107.577, 146.910 98.250, 145.929 95.500 C 144.948 92.750, 144.108 91.175, 144.060 92 C 144.013 92.825, 142.687 91.025, 141.113 88 C 134.361 75.020, 128.646 64.336, 127.294 62.163 C 126.494 60.878, 126.011 59.655, 126.221 59.446 C 126.620 59.047, 138.534 66.145, 139.780 67.524 C 140.176 67.962, 139.938 67.997, 139.250 67.601 C 138.563 67.206, 138 67.150, 138 67.477 C 138 67.804, 140.054 68.951, 142.564 70.027 C 145.074 71.103, 146.877 72.389, 146.571 72.885 C 146.265 73.381, 147.094 74.058, 148.414 74.389 C 149.734 74.720, 151.644 75.261, 152.657 75.590 C 154.187 76.087, 154.245 76.005, 153 75.110 C 152.058 74.432, 151.946 74.025, 152.700 74.015 C 153.360 74.007, 154.301 74.715, 154.790 75.590 C 155.279 76.464, 155.864 77.107, 156.090 77.019 C 157.052 76.644, 162.452 79.255, 173.472 85.421 C 179.938 89.039, 185.396 92, 185.599 92 C 185.803 92, 188.201 93.373, 190.929 95.051 L 195.888 98.103 200.135 95.301 C 203.822 92.869, 204.095 92.458, 202.206 92.182 C 201.010 92.008, 199.090 92.524, 197.941 93.329 C 196.004 94.685, 194.843 94.239, 182.175 87.273 C 174.654 83.136, 166.025 78.289, 163 76.501 C 159.975 74.713, 154.800 71.770, 151.500 69.961 C 148.200 68.152, 143.475 65.560, 141 64.202 C 138.525 62.844, 136.050 61.414, 135.500 61.025 C 134.950 60.636, 131.991 58.908, 128.924 57.185 C 124.933 54.942, 123.041 54.359, 122.268 55.132 M 276.500 100 C 277.600 100.473, 279.175 100.884, 280 100.914 C 281.333 100.963, 281.333 100.862, 280 100 C 279.175 99.467, 277.600 99.055, 276.500 99.086 L 274.500 99.141 276.500 100 M 322.750 113.689 C 320.284 114.334, 320.575 115.486, 323.547 116.839 C 326.847 118.343, 326.690 118.399, 327.245 115.500 C 327.735 112.937, 326.906 112.603, 322.750 113.689 M 179.545 116.250 C 180.644 119.886, 181.731 120.482, 184.532 118.983 L 187.105 117.606 183.803 115.845 C 179.420 113.508, 178.736 113.573, 179.545 116.250 M 243.592 138.266 L 233.714 160.624 225.280 163.487 C 211.259 168.248, 195.776 179.049, 184.808 191.722 C 181.062 196.049, 180.861 196.604, 181.463 200.914 C 182.404 207.651, 184.809 215.622, 188.072 222.818 L 190.952 229.171 184.476 247.606 C 178.369 264.991, 177.469 268, 178.378 268 C 178.744 268, 183.541 266.100, 189.296 263.677 C 191.295 262.835, 191.954 261.969, 191.610 260.637 C 191.331 259.559, 194.786 251.150, 199.814 240.669 C 205.649 228.506, 208.605 223.291, 208.820 224.783 C 208.996 226.005, 210 227.465, 211.051 228.027 C 212.102 228.590, 214.095 230.718, 215.481 232.757 C 216.866 234.796, 218 235.771, 218 234.923 C 218 234.076, 218.708 232.509, 219.574 231.441 C 220.440 230.374, 220.937 229.950, 220.679 230.500 C 220.421 231.050, 220.838 232.080, 221.605 232.789 C 222.746 233.844, 223 233.835, 223 232.739 C 223 229.520, 225.238 229.080, 228.593 231.639 C 231.487 233.846, 233.306 234.625, 236.258 234.923 C 236.674 234.966, 234.312 240.394, 231.007 246.986 L 224.998 258.972 228.633 260.491 C 230.633 261.327, 236.342 262.755, 241.320 263.666 C 251.773 265.578, 263.611 264.679, 275.014 261.106 C 286.636 257.465, 287.006 260.373, 270.782 227.837 C 262.927 212.084, 256.169 199.151, 255.764 199.098 C 255.359 199.044, 253.484 202.037, 251.598 205.750 C 248.256 212.329, 248.180 212.399, 248.625 208.500 C 249.652 199.501, 248.516 187.373, 246.453 185.311 C 245.654 184.511, 245 184.198, 245 184.616 C 245 186.060, 239.178 179.790, 238.652 177.779 C 238.179 175.970, 238.485 175.817, 241.562 176.316 C 244.143 176.735, 245 176.516, 245 175.437 C 245 174.647, 244.110 174, 243.023 174 C 241.936 174, 240.299 172.860, 239.386 171.467 C 237.833 169.096, 237.841 168.679, 239.515 164.967 C 240.499 162.785, 241.920 161, 242.673 161 C 244.132 161, 245.017 159.195, 247.085 152 C 247.797 149.525, 249.024 146.600, 249.813 145.500 C 250.831 144.079, 251.083 143.986, 250.682 145.177 C 250.373 146.099, 250.767 147.392, 251.559 148.049 C 252.462 148.798, 253.055 151.348, 253.147 154.872 L 253.294 160.500 254.038 154.500 C 255.174 145.344, 255.151 131, 254 131 C 253.450 131, 253 132.098, 253 133.441 C 253 134.784, 252.550 136.160, 252 136.500 C 251.450 136.840, 251 136.399, 251 135.519 C 251 133.294, 254.832 126, 256.001 126 C 256.961 126, 266.178 144.397, 284.560 183 C 317.849 252.911, 323.981 265.410, 325.371 266.188 C 326.364 266.744, 324.963 262.344, 321.459 253.901 C 318.457 246.668, 316.002 240.468, 316.005 240.125 C 316.008 239.781, 317.119 241.300, 318.474 243.500 C 321.728 248.784, 321.625 247.662, 318.094 239.387 L 315.189 232.575 318.752 225.538 C 321.230 220.645, 322.373 216.976, 322.504 213.500 C 322.608 210.750, 323.250 204, 323.932 198.500 L 325.173 188.500 319.562 183.271 C 309.646 174.028, 299.512 167.887, 286.077 162.977 L 278.655 160.264 268.955 138.382 C 259.743 117.602, 259.109 116.485, 256.363 116.204 C 253.500 115.911, 253.369 116.138, 243.592 138.266 M 320.161 136.256 C 317.449 144.068, 316.486 147.927, 317.502 146.917 C 319.539 144.893, 326.154 125.754, 325.161 124.761 C 324.749 124.349, 322.500 129.522, 320.161 136.256 M 165.158 136 C 165.158 137.375, 165.385 137.938, 165.662 137.250 C 165.940 136.563, 165.940 135.438, 165.662 134.750 C 165.385 134.063, 165.158 134.625, 165.158 136 M 173.141 139.500 C 173.141 141.150, 173.527 143.400, 174 144.500 C 174.733 146.205, 174.859 146.058, 174.859 143.500 C 174.859 141.850, 174.473 139.600, 174 138.500 C 173.267 136.795, 173.141 136.942, 173.141 139.500 M 177.079 144.583 C 177.127 145.748, 177.364 145.985, 177.683 145.188 C 177.972 144.466, 177.936 143.603, 177.604 143.271 C 177.272 142.939, 177.036 143.529, 177.079 144.583 M 158.667 146.667 C 158.300 147.033, 158 147.798, 158 148.367 C 158 148.993, 158.466 148.934, 159.183 148.217 C 159.834 147.566, 160.134 146.801, 159.850 146.517 C 159.566 146.232, 159.033 146.300, 158.667 146.667 M 156.624 151.539 C 155.659 154.053, 155.943 154.702, 157.122 152.675 C 157.706 151.671, 157.973 150.639, 157.715 150.382 C 157.458 150.124, 156.966 150.645, 156.624 151.539 M 176.825 156.326 C 176.452 158.151, 176.592 158.808, 177.218 158.182 C 177.751 157.649, 178.011 156.377, 177.794 155.356 C 177.503 153.981, 177.251 154.233, 176.825 156.326 M 151.624 156.539 C 150.659 159.053, 150.943 159.702, 152.122 157.675 C 152.706 156.671, 152.973 155.639, 152.715 155.382 C 152.458 155.124, 151.966 155.645, 151.624 156.539 M 252.750 168.332 C 251.548 171.267, 251.806 180.594, 253.054 179.346 C 253.634 178.766, 253.972 175.638, 253.804 172.396 C 253.607 168.575, 253.236 167.145, 252.750 168.332 M 243.459 171.067 C 243.096 171.653, 243.014 172.348, 243.276 172.610 C 243.538 172.872, 244.019 172.392, 244.345 171.543 C 245.021 169.781, 244.445 169.471, 243.459 171.067 M 234.609 175.473 C 232.554 178.611, 232.586 178.921, 234.908 178.314 C 236.896 177.794, 238.400 174.365, 237.016 173.510 C 236.577 173.239, 235.495 174.122, 234.609 175.473 M 146.484 210.575 C 146.930 216.609, 151.429 230.972, 155.186 238.355 C 156.265 240.475, 156.636 241.893, 156.011 241.507 C 154.834 240.780, 119 254.784, 119 255.971 C 119 256.340, 125.638 259.260, 133.750 262.462 C 141.863 265.663, 148.871 268.612, 149.324 269.015 C 149.776 269.417, 148.027 273.966, 145.436 279.124 C 137.249 295.419, 134.064 302.913, 135.571 302.335 C 136.340 302.039, 138.359 299.368, 140.058 296.399 C 141.757 293.430, 143.456 291, 143.834 291 C 145.337 291, 152.943 282.716, 152.338 281.738 C 151.982 281.162, 152.098 280.938, 152.595 281.241 C 153.093 281.543, 154.080 281.162, 154.789 280.395 C 155.842 279.256, 155.842 278.997, 154.789 278.985 C 153.877 278.974, 153.939 278.686, 155 278 C 155.825 277.467, 156.050 277.017, 155.500 277 C 154.950 276.983, 155.155 276.555, 155.956 276.049 C 156.756 275.542, 157.576 273.636, 157.777 271.814 C 157.977 269.991, 159.663 265.766, 161.523 262.424 C 164.753 256.618, 165.308 252, 162.776 252 C 162.232 252, 162.053 251.304, 162.380 250.453 C 162.706 249.603, 161 244.978, 158.588 240.176 C 156.176 235.374, 153.053 227.632, 151.647 222.972 C 150.241 218.313, 148.403 212.250, 147.563 209.500 L 146.035 204.500 146.484 210.575 M 103 223 C 103 223.550, 103.423 224, 103.941 224 C 104.459 224, 105.160 223.550, 105.500 223 C 105.840 222.450, 105.416 222, 104.559 222 C 103.702 222, 103 222.450, 103 223 M 348.217 243.568 L 345.395 249.147 350.837 259.824 C 353.830 265.696, 356.433 270.680, 356.623 270.900 C 357.276 271.660, 393.968 256.994, 393.989 255.965 C 393.995 255.671, 385.788 252.108, 375.750 248.048 C 365.712 243.988, 356.046 240.063, 354.269 239.327 L 351.038 237.989 348.217 243.568 M 205.079 244.583 C 205.127 245.748, 205.364 245.985, 205.683 245.188 C 205.972 244.466, 205.936 243.603, 205.604 243.271 C 205.272 242.939, 205.036 243.529, 205.079 244.583 M 0.158 256 C 0.158 257.375, 0.385 257.938, 0.662 257.250 C 0.940 256.563, 0.940 255.438, 0.662 254.750 C 0.385 254.063, 0.158 254.625, 0.158 256 M 196.438 255.804 C 194.846 256.906, 195.333 259.440, 197.205 259.801 C 198.486 260.048, 198.805 259.582, 198.486 257.929 C 197.961 255.201, 197.700 254.930, 196.438 255.804 M 182.500 293.056 C 176.205 296.457, 171.637 299.533, 171.820 300.249 C 171.995 300.937, 174.223 304.856, 176.771 308.959 C 182.189 317.684, 192.794 329.172, 201.413 335.652 C 206.929 339.799, 222.841 348.575, 223.462 347.813 C 223.955 347.209, 195.311 287.604, 194.411 287.361 C 193.910 287.225, 188.550 289.788, 182.500 293.056 M 314.073 292.250 C 313.590 293.488, 307.533 306.394, 300.613 320.932 C 293.692 335.469, 288.231 347.565, 288.477 347.811 C 289.160 348.493, 303.398 341.510, 308.550 337.966 C 315.634 333.091, 325.447 323.495, 330.842 316.165 C 335.624 309.668, 339.475 303.094, 338.824 302.538 C 337.558 301.458, 316.562 290, 315.849 290 C 315.355 290, 314.556 291.012, 314.073 292.250 M 287 296.911 C 284.281 298.453, 267.649 301.830, 259.428 302.510 C 250.851 303.218, 235.829 301.829, 227.062 299.516 C 221.994 298.179, 221.819 298.200, 222.311 300.083 C 222.593 301.158, 230.168 320.684, 239.146 343.475 C 249.486 369.722, 255.753 384.407, 256.241 383.534 C 256.813 382.511, 283 316.511, 290.078 298.250 C 291.014 295.836, 289.816 295.315, 287 296.911" stroke="none" fill="black" fill-rule="evenodd"/>
</svg>